<svg width="25" height="22" viewBox="0 0 25 22" fill="none" xmlns="http://www.w3.org/2000/svg">
<path d="M22.7 1.16267C22.1299 0.687025 21.4611 0.344315 20.742 0.159405C20.023 -0.0254997 19.2718 -0.0479568 18.543 0.0936652L16.779 0.525665C15.8584 0.694365 15.0262 1.18051 14.4271 1.89949C13.8279 2.61848 13.4999 3.52478 13.5 4.46067V19.9277C12.8369 20.0247 12.1631 20.0247 11.5 19.9277V4.46067C11.5033 3.53341 11.1828 2.63408 10.5939 1.91788C10.0049 1.20167 9.18444 0.713515 8.274 0.537665L6.4 0.0816653C5.67916 -0.0502387 4.93813 -0.0220827 4.22938 0.164145C3.52062 0.350365 2.86147 0.690115 2.29857 1.15933C1.73567 1.62854 1.28279 2.21574 0.971982 2.87938C0.661178 3.54302 0.500049 4.26686 0.5 4.99967V15.7927C0.500057 16.9635 0.910977 18.0971 1.66113 18.996C2.41129 19.8949 3.45311 20.5021 4.605 20.7117L10.891 21.8547C11.955 22.048 13.045 22.048 14.109 21.8547L20.4 20.7117C21.551 20.5011 22.5916 19.8935 23.3408 18.9946C24.0899 18.0958 24.5002 16.9628 24.5 15.7927V4.99967C24.5005 4.26712 24.3394 3.54347 24.0283 2.88026C23.7171 2.21706 23.2636 1.63061 22.7 1.16267Z" fill="white"/>
</svg>
